<?xml version="1.0" standalone="no"?>
<!DOCTYPE svg PUBLIC "-//W3C//DTD SVG 20010904//EN"
 "http://www.w3.org/TR/2001/REC-SVG-20010904/DTD/svg10.dtd">
<svg version="1.0" xmlns="http://www.w3.org/2000/svg"
 width="237.000000pt" height="80.000000pt" viewBox="0 0 237.000000 80.000000"
 preserveAspectRatio="xMidYMid meet">

<g transform="translate(0.000000,80.000000) scale(0.100000,-0.100000)"
fill="#000000" stroke="none">
<path d="M0 400 l0 -400 1185 0 1185 0 0 400 0 400 -1185 0 -1185 0 0 -400z
m405 350 c4 -6 -13 -10 -44 -10 -28 0 -51 5 -51 10 0 6 20 10 44 10 25 0 48
-4 51 -10z m89 -39 c15 -17 15 -19 1 -25 -23 -9 -185 -8 -185 2 0 4 40 6 89 5
66 -1 89 1 85 10 -3 8 -30 11 -89 9 -56 -2 -85 0 -85 7 0 7 31 11 83 11 69 0
87 -3 101 -19z m1296 -76 c0 -78 -2 -85 -20 -85 -18 0 -20 7 -20 85 0 78 2 85
20 85 18 0 20 -7 20 -85z m-760 60 c0 -11 -8 -13 -30 -8 -63 12 -98 -68 -45
-103 21 -14 31 -15 51 -5 22 10 25 9 22 -6 -5 -27 -88 -31 -111 -5 -29 32 -32
83 -7 115 18 23 29 27 71 27 36 0 49 -4 49 -15z m390 -10 c0 -8 9 -15 20 -15
11 0 20 -6 20 -14 0 -9 -7 -12 -20 -9 -17 5 -20 0 -20 -32 0 -28 5 -38 20 -42
32 -8 23 -23 -14 -23 -38 0 -46 12 -46 66 0 21 -4 33 -10 29 -5 -3 -10 1 -10
9 0 9 5 16 10 16 6 0 10 7 10 15 0 8 9 15 20 15 11 0 20 -7 20 -15z m-1190
-31 c0 -2 -12 -4 -26 -4 -14 0 -23 4 -20 9 6 8 46 4 46 -5z m90 0 c0 -2 -16
-4 -36 -4 -19 0 -33 4 -30 8 5 8 66 4 66 -4z m358 0 c18 -4 22 -11 22 -46 l0
-41 -46 7 c-26 3 -64 6 -85 6 -22 0 -39 5 -39 11 0 7 14 10 37 7 l37 -4 -43
38 -43 37 69 -5 c37 -3 78 -7 91 -10z m490 4 c5 -7 13 -23 16 -35 7 -22 5 -23
-45 -23 -46 0 -50 -2 -38 -16 9 -11 23 -14 46 -11 25 4 33 2 33 -9 0 -20 -84
-19 -104 2 -20 20 -20 68 0 88 18 19 77 21 92 4z m162 -8 c5 -10 10 -37 10
-59 0 -34 -3 -41 -20 -41 -17 0 -20 7 -20 43 0 48 -5 58 -26 50 -9 -3 -14 -21
-14 -49 0 -37 -3 -44 -20 -44 -18 0 -20 7 -20 59 l0 59 50 0 c39 1 52 -3 60
-18z m190 8 c0 -9 3 -9 12 0 17 17 48 15 48 -3 0 -8 -8 -15 -18 -15 -27 0 -42
-20 -42 -57 0 -23 -5 -33 -15 -33 -12 0 -15 13 -15 60 0 47 3 60 15 60 8 0 15
-5 15 -12z m180 -7 c5 -11 10 -38 10 -60 l0 -40 -57 2 c-57 2 -58 2 -58 32 0
26 5 31 40 41 31 9 36 13 22 19 -9 4 -26 5 -37 2 -13 -3 -20 0 -20 9 0 23 87
19 100 -5z m-1302 2 c-10 -2 -26 -2 -35 0 -10 3 -2 5 17 5 19 0 27 -2 18 -5z
m-148 -29 c0 -2 -12 -4 -26 -4 -14 0 -23 4 -20 9 6 8 46 4 46 -5z m103 -1 c-7
-2 -19 -2 -25 0 -7 3 -2 5 12 5 14 0 19 -2 13 -5z m-152 -31 c-7 -2 -18 1 -23
6 -8 8 -4 9 13 5 13 -4 18 -8 10 -11z m-107 -44 c-5 -8 -2 -9 10 -5 10 4 15 3
11 -3 -3 -6 -1 -10 4 -10 6 0 11 4 11 10 0 5 7 7 15 4 16 -7 39 -68 32 -87 -3
-6 -6 -3 -7 8 l-1 20 -12 -20 c-12 -21 -67 -30 -78 -13 -3 5 -13 2 -23 -7 -15
-15 -16 -15 -16 3 0 13 6 19 17 18 14 -1 18 7 19 35 0 33 9 59 20 59 3 0 2 -5
-2 -12z m1156 -78 c0 -13 -7 -20 -20 -20 -13 0 -20 7 -20 20 0 13 7 20 20 20
13 0 20 -7 20 -20z m-230 -72 c26 -72 27 -78 10 -78 -10 0 -20 7 -24 15 -3 9
-18 15 -40 15 -21 0 -36 -6 -40 -15 -6 -16 -36 -21 -36 -6 0 6 12 42 26 81 24
64 29 71 51 68 21 -3 30 -15 53 -80z m-817 31 c-8 -28 -21 -13 -15 17 3 16 7
21 12 14 4 -7 5 -21 3 -31z m567 1 c0 -5 -5 -10 -11 -10 -5 0 -7 5 -4 10 3 6
8 10 11 10 2 0 4 -4 4 -10z m400 -6 c0 -12 -7 -14 -29 -9 -17 3 -32 2 -36 -5
-4 -6 6 -13 24 -16 38 -8 55 -27 46 -52 -7 -23 -37 -33 -76 -25 -42 8 -37 30
6 25 45 -5 47 14 3 26 -62 16 -44 72 23 72 29 0 39 -4 39 -16z m80 -44 c0 -53
-2 -60 -20 -60 -18 0 -20 7 -20 60 0 53 2 60 20 60 18 0 20 -7 20 -60z m138
48 c7 -7 12 -34 12 -60 0 -47 -1 -48 -28 -46 -15 1 -33 -1 -40 -6 -22 -13 -53
13 -50 42 2 21 11 29 42 37 43 12 34 32 -10 21 -17 -5 -24 -2 -24 9 0 19 80
21 98 3z m92 2 c0 -6 8 -5 20 2 34 21 55 -1 58 -61 3 -46 1 -51 -17 -51 -18 0
-21 6 -21 46 0 38 -3 45 -17 42 -13 -2 -19 -15 -21 -46 -3 -34 -7 -42 -23 -42
-17 0 -19 7 -19 60 0 53 2 60 20 60 11 0 20 -5 20 -10z m-1120 -15 c0 -8 -4
-15 -10 -15 -5 0 -10 7 -10 15 0 8 5 15 10 15 6 0 10 -7 10 -15z m-215 -25
c-3 -5 -12 -10 -18 -10 -7 0 -6 4 3 10 19 12 23 12 15 0z m402 -44 c11 -11 -4
-17 -53 -21 -35 -4 -43 -2 -29 4 11 5 14 10 8 10 -7 1 -13 6 -13 12 0 12 75 7
87 -5z m1093 -174 l0 -84 -25 4 c-14 3 -28 1 -31 -3 -18 -31 -74 10 -74 54 0
52 48 85 78 55 9 -9 12 -4 12 23 0 28 4 35 20 35 18 0 20 -7 20 -84z m340 62
c0 -8 -9 -14 -20 -14 -13 0 -20 7 -20 19 0 14 5 18 20 14 11 -3 20 -12 20 -19z
m-1707 10 c51 -9 52 -38 1 -32 l-37 4 35 -30 c19 -17 43 -36 54 -43 17 -11 16
-12 -13 -12 -17 -1 -35 4 -38 9 -3 6 -12 10 -18 10 -7 0 -6 -4 3 -10 11 -7 -2
-10 -42 -10 -65 0 -72 7 -81 78 l-5 42 51 0 c29 0 69 -3 90 -6z m737 -9 c0
-10 -11 -15 -35 -15 -24 0 -35 -5 -35 -15 0 -10 11 -15 35 -15 24 0 35 -5 35
-15 0 -10 -11 -15 -35 -15 -33 0 -35 -2 -35 -35 0 -28 -4 -35 -20 -35 -18 0
-20 7 -20 80 l0 80 55 0 c42 0 55 -3 55 -15z m860 -10 c0 -8 9 -15 20 -15 11
0 20 -7 20 -15 0 -8 -9 -15 -20 -15 -16 0 -20 -7 -20 -35 0 -28 4 -35 20 -35
11 0 20 -4 20 -10 0 -5 -15 -10 -34 -10 -35 0 -46 15 -46 67 0 12 -5 23 -10
25 -17 5 13 58 33 58 9 0 17 -7 17 -15z m-725 -35 c24 -27 22 -70 -5 -92 -28
-23 -52 -23 -80 0 -44 36 -17 112 40 112 15 0 35 -9 45 -20z m93 -33 c3 -39 6
-48 20 -45 13 2 18 16 20 51 3 39 6 47 23 47 17 0 19 -7 19 -61 0 -57 -1 -60
-22 -58 -13 2 -33 -1 -46 -5 -37 -12 -52 9 -52 71 0 46 3 54 18 51 13 -2 18
-15 20 -51z m155 41 c4 -10 7 -10 18 0 36 33 69 1 69 -67 0 -34 -3 -41 -20
-41 -17 0 -20 7 -20 46 0 38 -3 45 -17 42 -13 -2 -19 -15 -21 -46 -3 -34 -7
-42 -23 -42 -17 0 -19 7 -19 60 0 45 4 60 14 60 8 0 16 -6 19 -12z m381 -4
c10 -9 16 -33 16 -60 0 -41 -2 -45 -22 -43 -13 1 -31 -1 -40 -5 -22 -10 -58
10 -58 32 0 26 20 42 52 42 15 0 28 4 28 9 0 13 -25 20 -49 14 -20 -5 -28 6
-14 20 12 13 72 7 87 -9z m204 -47 c3 -52 1 -57 -18 -57 -18 0 -20 6 -20 61 0
52 2 60 18 57 13 -2 18 -15 20 -61z m142 43 c37 -37 20 -94 -30 -105 -45 -10
-80 16 -80 60 0 58 68 87 110 45z m90 10 c0 -6 8 -5 20 2 34 21 55 -1 58 -61
3 -46 1 -51 -17 -51 -18 0 -21 6 -21 46 0 38 -3 45 -17 42 -13 -2 -19 -15 -21
-46 -3 -34 -7 -42 -23 -42 -17 0 -19 7 -19 60 0 53 2 60 20 60 11 0 20 -5 20
-10z m-1714 -35 c-11 -8 -14 -15 -7 -15 7 0 9 -5 5 -11 -4 -8 -9 -7 -15 2 -8
13 14 40 30 39 3 0 -3 -7 -13 -15z m46 -20 c2 3 5 -3 5 -12 0 -24 -16 -43 -36
-42 -11 0 -9 3 7 9 27 11 27 17 5 44 -14 16 -14 18 -2 8 9 -6 18 -10 21 -7z
m-22 -25 c0 -5 -4 -10 -10 -10 -5 0 -10 5 -10 10 0 6 5 10 10 10 6 0 10 -4 10
-10z m-35 -10 c3 -5 1 -10 -4 -10 -6 0 -11 5 -11 10 0 6 2 10 4 10 3 0 8 -4
11 -10z"/>
<path d="M1100 635 c-11 -13 -8 -15 20 -15 21 0 30 4 28 13 -7 18 -33 20 -48
2z"/>
<path d="M1630 600 c-11 -7 -12 -12 -3 -21 15 -15 43 -5 43 16 0 17 -18 19
-40 5z"/>
<path d="M951 410 c-9 -28 -8 -30 14 -30 22 0 23 2 14 30 -6 17 -12 30 -14 30
-2 0 -8 -13 -14 -30z"/>
<path d="M1320 354 c0 -9 7 -14 17 -12 25 5 28 28 4 28 -12 0 -21 -6 -21 -16z"/>
<path d="M1552 148 c2 -25 8 -33 23 -33 16 0 20 7 20 30 0 24 -5 31 -23 33
-21 3 -23 0 -20 -30z"/>
<path d="M1074 166 c-11 -29 0 -51 26 -51 21 0 25 5 25 30 0 24 -5 31 -23 33
-13 2 -24 -3 -28 -12z"/>
<path d="M1710 127 c0 -19 10 -27 26 -20 21 8 17 33 -6 33 -11 0 -20 -6 -20
-13z"/>
<path d="M2046 162 c-10 -30 4 -53 28 -50 31 4 30 62 -1 66 -14 2 -23 -3 -27
-16z"/>
</g>
</svg>
