<?xml version="1.0" encoding="UTF-8" standalone="no"?>
<svg width="163px" height="33px" viewBox="0 0 163 33" version="1.1" xmlns="http://www.w3.org/2000/svg" xmlns:xlink="http://www.w3.org/1999/xlink">
    <!-- Generator: Sketch 40.3 (33839) - http://www.bohemiancoding.com/sketch -->
    <title>Group</title>
    <desc>Created with Sketch.</desc>
    <defs></defs>
    <g id="Page-1" stroke="none" stroke-width="1" fill="none" fill-rule="evenodd">
        <g id="Event-(desktop)" transform="translate(-242.000000, -32.000000)" fill="#FFFFFF">
            <g id="Group" transform="translate(242.029851, 31.936057)">
                <g id="Barbican-wordmark-Copy" transform="translate(0.000000, 0.609098)">
                    <path d="M0.0636695621,0.0894462695 L7.22404647,0.0894462695 L7.22404647,11.8920045 C8.90356664,10.3833314 10.4947406,9.80637463 12.8815957,9.80637463 C18.8925298,9.80637463 23.2241321,14.5097734 23.2241321,20.9881038 C23.2241321,24.1385792 22.075066,27.1112967 20.1303188,29.1080475 C18.362264,30.9276078 16.0198646,31.8148845 13.1025554,31.8148845 C10.1852462,31.8148845 8.46145876,31.1049875 6.91455212,29.3300558 L6.91455212,31.0603589 L0.0636695621,31.0603589 L0.0636695621,0.0894462695 L0.0636695621,0.0894462695 Z M6.73785967,20.7662847 C6.73785967,23.8278811 8.59426066,25.9133218 11.3345007,25.9133218 C14.0751174,25.9133218 15.7546376,24.0497003 15.7546376,20.9881038 C15.7546376,17.8822571 14.0308501,15.9299457 11.2463428,15.9299457 C8.50572606,15.9299457 6.73785967,17.8822571 6.73785967,20.7662847 L6.73785967,20.7662847 Z" id="Fill-1"></path>
                    <path d="M40.4620067,29.6405649 C38.6056057,31.3266176 37.3239261,31.8148845 34.4951515,31.8148845 C31.2685364,31.8148845 28.9700275,30.9276078 27.1578938,29.0191686 C25.2131466,26.9781673 24.1966941,24.1385792 24.1966941,20.8549745 C24.1966941,14.4210835 28.4399501,9.89506448 34.4066169,9.89506448 C37.0144318,9.89506448 38.4729922,10.4720213 40.4620067,12.3358319 L40.4620067,10.5609002 L47.3128893,10.5609002 L47.3128893,31.0603589 L40.4620067,31.0603589 L40.4620067,29.6405649 L40.4620067,29.6405649 Z M31.6221096,21.0767937 C31.6221096,24.1385792 33.3016298,25.9577613 36.1304044,25.9577613 C38.8708328,25.9577613 40.6386992,23.9610104 40.6386992,20.8549745 C40.6386992,17.9265074 38.8708328,15.9299457 36.218939,15.9299457 C33.5668569,15.9299457 31.6221096,18.1038871 31.6221096,21.0767937 L31.6221096,21.0767937 Z" id="Fill-2"></path>
                    <path d="M49.3019038,10.5609002 L56.1527864,10.5609002 L56.1527864,13.1342297 C57.6556141,10.7825303 59.1584418,9.93969307 61.6334547,9.93969307 C62.1198299,9.93969307 62.4291359,9.98413254 64.1088444,10.1613231 L64.1088444,16.7283434 C63.268896,16.5067134 62.8269765,16.4622739 62.2522551,16.4622739 C58.4512952,16.4622739 56.4622807,18.5034642 56.4622807,22.408087 L56.4622807,31.0603589 L49.3019038,31.0603589 L49.3019038,10.5609002" id="Fill-3"></path>
                    <path d="M65.3460683,0.0894462695 L72.5064452,0.0894462695 L72.5064452,11.8920045 C74.1861538,10.3833314 75.7773277,9.80637463 78.1639944,9.80637463 C84.1749285,9.80637463 88.5067192,14.5097734 88.5067192,20.9881038 C88.5067192,24.1385792 87.3574648,27.1112967 85.4127176,29.1080475 C83.6446628,30.9276078 81.302075,31.8148845 78.3849542,31.8148845 C75.4678334,31.8148845 73.7440459,31.1049875 72.1971393,29.3300558 L72.1971393,31.0603589 L65.3460683,31.0603589 L65.3460683,0.0894462695 L65.3460683,0.0894462695 Z M72.0202584,20.7662847 C72.0202584,23.8278811 73.8766594,25.9133218 76.6168994,25.9133218 C79.3573278,25.9133218 81.036848,24.0497003 81.036848,20.9881038 C81.036848,17.8822571 79.3132489,15.9299457 76.5285532,15.9299457 C73.7883132,15.9299457 72.0202584,17.8822571 72.0202584,20.7662847 L72.0202584,20.7662847 Z" id="Fill-4"></path>
                    <path d="M97.4349625,4.61508712 C97.4349625,6.83365717 95.6669078,8.60858886 93.4569335,8.60858886 C91.2912265,8.60858886 89.5231718,6.83365717 89.5231718,4.61508712 C89.5231718,2.44076744 91.2912265,0.666024865 93.4569335,0.666024865 C95.6669078,0.666024865 97.4349625,2.44076744 97.4349625,4.61508712 L97.4349625,4.61508712 Z M89.9210123,10.5609002 L97.0813892,10.5609002 L97.0813892,31.0603589 L89.9210123,31.0603589 L89.9210123,10.5609002 Z" id="Fill-5"></path>
                    <path d="M114.849341,30.1728931 C111.888141,31.6373157 110.827233,31.9035744 108.352032,31.9035744 C105.523257,31.9035744 103.313283,31.1492379 101.766188,29.5963145 C99.7330946,27.6441922 98.5840286,24.5822176 98.5840286,21.1214223 C98.5840286,14.3766441 102.694483,9.76212426 108.661526,9.76212426 C110.959847,9.76212426 112.506753,10.2059517 114.849341,11.6255567 L114.849341,18.8139733 C113.169821,16.8172224 112.109101,16.1960152 110.385125,16.1960152 C107.777499,16.1960152 106.186325,17.9707578 106.186325,20.8549745 C106.186325,23.6947517 107.777499,25.4696834 110.341046,25.4696834 C111.976299,25.4696834 113.169821,24.8484762 114.849341,23.1626126 L114.849341,30.1728931" id="Fill-6"></path>
                    <path d="M131.866068,29.6405649 C130.009855,31.3266176 128.728176,31.8148845 125.899213,31.8148845 C122.672597,31.8148845 120.374277,30.9276078 118.562143,29.0191686 C116.617396,26.9781673 115.600943,24.1385792 115.600943,20.8549745 C115.600943,14.4210835 119.843823,9.89506448 125.810866,9.89506448 C128.418681,9.89506448 129.877242,10.4720213 131.866068,12.3358319 L131.866068,10.5609002 L138.717139,10.5609002 L138.717139,31.0603589 L131.866068,31.0603589 L131.866068,29.6405649 L131.866068,29.6405649 Z M123.026359,21.0767937 C123.026359,24.1385792 124.705879,25.9577613 127.534654,25.9577613 C130.275271,25.9577613 132.042949,23.9610104 132.042949,20.8549745 C132.042949,17.9265074 130.275271,15.9299457 127.623188,15.9299457 C124.971106,15.9299457 123.026359,18.1038871 123.026359,21.0767937 L123.026359,21.0767937 Z" id="Fill-7"></path>
                    <path d="M140.705965,10.5609002 L147.777996,10.5609002 L147.777996,12.9125996 C149.590129,10.5609002 151.181303,9.80637463 154.098612,9.80637463 C157.28096,9.80637463 159.932854,11.0934176 161.126187,13.2231087 C161.745176,14.3323937 162.054482,15.6194366 162.054482,17.2166104 L162.054482,31.0603589 L154.894105,31.0603589 L154.894105,19.7903181 C154.894105,17.0390416 153.877464,15.7523769 151.711757,15.7523769 C149.413437,15.7523769 147.86653,17.3497397 147.86653,19.7903181 L147.86653,31.0603589 L140.705965,31.0603589 L140.705965,10.5609002" id="Fill-8"></path>
                </g>
            </g>
        </g>
    </g>
</svg>