<?xml version="1.0" encoding="UTF-8"?>
<svg width="24px" height="33px" viewBox="0 0 24 33" version="1.1" xmlns="http://www.w3.org/2000/svg" xmlns:xlink="http://www.w3.org/1999/xlink">
    <!-- Generator: Sketch 49.3 (51167) - http://www.bohemiancoding.com/sketch -->
    <title>ribbon</title>
    <desc>Created with Sketch.</desc>
    <defs>
        <path d="M12.9346719,7.75497996 L14.0987785,10.7981034 L16.8889443,10.7981034 C17.441229,10.7981034 17.8889443,11.2458186 17.8889443,11.7981034 C17.8889443,12.0983025 17.7540797,12.3826204 17.5215941,12.5725413 L15.4975127,14.2260436 L16.2298689,17.0977523 C16.3663468,17.6329086 16.0431542,18.1773757 15.507998,18.3138537 C15.2256681,18.3858547 14.9259762,18.3311393 14.6873035,18.1640176 L12.0006773,16.2828077 L9.31405119,18.1640176 C8.86164712,18.4807967 8.23810096,18.3708509 7.92132185,17.9184469 C7.75420019,17.6797742 7.69948474,17.3800822 7.77148579,17.0977523 L8.50384196,14.2260436 L6.4797605,12.5725413 C6.05205023,12.2231384 5.98856955,11.5931638 6.33797243,11.1654535 C6.52789334,10.9329679 6.8122113,10.7981034 7.11241038,10.7981034 L9.90257611,10.7981034 L11.0666828,7.75497996 C11.2640071,7.23914902 11.8421337,6.98094838 12.3579646,7.1782727 C12.6234201,7.27981919 12.8331254,7.48952448 12.9346719,7.75497996 Z" id="path-1"></path>
        <filter x="-4.2%" y="-4.4%" width="108.3%" height="117.5%" filterUnits="objectBoundingBox" id="filter-2">
            <feOffset dx="0" dy="1" in="SourceAlpha" result="shadowOffsetOuter1"></feOffset>
            <feColorMatrix values="0 0 0 0 0   0 0 0 0 0   0 0 0 0 0  0 0 0 0.1 0" type="matrix" in="shadowOffsetOuter1"></feColorMatrix>
        </filter>
    </defs>
    <g id="Page-1" stroke="none" stroke-width="1" fill="none" fill-rule="evenodd">
        <g id="site-pricing-page-alt-CTA" transform="translate(-484.000000, -356.000000)">
            <g id="ribbon" transform="translate(484.000000, 356.000000)">
                <path d="M22.4505503,31.9810684 L12,25.1086957 L1.54944969,31.9810684 C1.08800098,32.2845211 0.467925883,32.15644 0.164473198,31.6949913 C0.0571764342,31.5318293 2.45959558e-16,31.340822 2.22044605e-16,31.1455416 L0,0 L24,0 L24,31.1455416 C24,31.6978264 23.5522847,32.1455416 23,32.1455416 C22.8047196,32.1455416 22.6137123,32.0883652 22.4505503,31.9810684 Z" id="Shape" fill="#F8466F" fill-rule="evenodd"></path>
                <g id="Shape">
                    <use fill="black" fill-opacity="1" filter="url(#filter-2)" xlink:href="#path-1"></use>
                    <use fill="#FFFFFF" fill-rule="evenodd" xlink:href="#path-1"></use>
                </g>
            </g>
        </g>
    </g>
</svg>